<?xml version="1.0" encoding="UTF-8" standalone="no" ?>
<!DOCTYPE svg PUBLIC "-//W3C//DTD SVG 1.1//EN" "http://www.w3.org/Graphics/SVG/1.1/DTD/svg11.dtd">
<svg xmlns="http://www.w3.org/2000/svg" xmlns:xlink="http://www.w3.org/1999/xlink" version="1.1" width="1998pt" height="1254pt" viewBox="0 0 1997.99994 1253.99996" xml:space="preserve">
<desc>Created with Fabric.js 5.3.0</desc>
<defs>
</defs>
<g transform="matrix(0.1333333333 0 0 -0.1333333333 536.9999699895 534.193100254)" id="vPGpjzRJ_WNj1ui2t5INT"  >
<path style="stroke: none; stroke-width: 1; stroke-dasharray: none; stroke-linecap: butt; stroke-dashoffset: 0; stroke-linejoin: miter; stroke-miterlimit: 4; fill: rgb(0,0,0); fill-rule: nonzero; opacity: 1;"  transform=" translate(-3230.5900555126, -6105.6274163718)" d="M 2770 6853 C 2712 6846 2590 6820 2572 6811 C 2384 6719 2299 6617 2255 6432 C 2241 6376 2239 6336 2243 6267 C 2254 6106 2300 5999 2401 5906 C 2506 5809 2616 5765 2795 5750 C 2884 5743 2985 5711 3050 5671 C 3058 5666 3094 5644 3129 5623 C 3164 5602 3204 5577 3219 5568 C 3233 5558 3262 5542 3282 5530 C 3302 5519 3338 5498 3362 5482 C 3386 5467 3441 5440 3485 5423 C 3652 5358 3665 5355 3815 5356 C 3944 5356 3959 5359 4010 5382 C 4130 5438 4220 5537 4220 5614 C 4220 5657 4214 5658 4166 5625 C 4146 5611 4126 5600 4121 5600 C 4117 5600 4100 5594 4084 5586 C 4025 5558 3895 5546 3786 5559 C 3698 5570 3474 5629 3445 5650 C 3431 5660 3172 5747 3132 5755 C 3096 5762 3091 5786 3123 5801 C 3132 5806 3148 5815 3158 5820 C 3167 5826 3186 5835 3199 5840 C 3212 5846 3251 5879 3284 5913 C 3449 6081 3485 6350 3372 6575 C 3308 6703 3172 6803 3016 6834 C 2934 6851 2821 6860 2770 6853 z M 2952 6770 C 3009 6753 3092 6672 3129 6595 C 3249 6352 3174 5943 2994 5856 C 2972 5846 2948 5834 2938 5829 C 2900 5810 2823 5808 2765 5825 C 2637 5862 2567 5937 2520 6087 C 2490 6182 2483 6351 2504 6450 C 2523 6538 2542 6596 2558 6612 C 2565 6619 2570 6629 2570 6635 C 2572 6668 2677 6754 2741 6775 C 2789 6791 2891 6788 2952 6770 z" stroke-linecap="round" />
</g>
<g transform="matrix(0.1333333333 0 0 -0.1333333333 1418.3629625878 506.4448592327)" id="pUR75CYM5yfWN90yLBROB"  >
<path style="stroke: none; stroke-width: 1; stroke-dasharray: none; stroke-linecap: butt; stroke-dashoffset: 0; stroke-linejoin: miter; stroke-miterlimit: 4; fill: rgb(0,0,0); fill-rule: nonzero; opacity: 1;"  transform=" translate(-9840.8125, -6313.7392240311)" d="M 9355 6848 C 9352 6840 9351 6787 9352 6729 C 9355 6628 9368 6594 9380 6655 C 9390 6700 9417 6736 9455 6754 C 9482 6767 9515 6770 9607 6768 L 9725 6765 L 9728 6325 C 9729 6083 9728 5874 9725 5862 C 9722 5849 9708 5828 9694 5815 C 9680 5802 9671 5786 9675 5781 C 9683 5767 9989 5766 10009 5779 C 10021 5787 10018 5794 9992 5818 L 9960 5848 L 9962 6307 L 9965 6765 L 10083 6768 C 10187 6770 10206 6768 10233 6751 C 10270 6728 10307 6688 10320 6657 C 10326 6642 10329 6671 10329 6744 L 10330 6852 L 10283 6846 C 10256 6842 10084 6837 9900 6834 C 9593 6829 9473 6834 9388 6855 C 9368 6860 9359 6858 9355 6848 z" stroke-linecap="round" />
</g>
<g transform="matrix(0.1333333333 0 0 -0.1333333333 1544.9212959212 507.8835693881)" id="kaMc-hspRcB4BhB5CbmHL"  >
<path style="stroke: none; stroke-width: 1; stroke-dasharray: none; stroke-linecap: butt; stroke-dashoffset: 0; stroke-linejoin: miter; stroke-miterlimit: 4; fill: rgb(0,0,0); fill-rule: nonzero; opacity: 1;"  transform=" translate(-10790, -6302.9488978661)" d="M 10667 6841 C 10630 6831 10592 6816 10582 6809 C 10487 6737 10455 6676 10456 6565 C 10456 6483 10471 6437 10517 6384 C 10535 6363 10611 6303 10642 6285 C 10652 6280 10694 6251 10735 6223 C 10777 6194 10814 6170 10818 6170 C 10832 6169 10933 6085 10954 6057 C 10980 6022 10979 5944 10954 5900 C 10912 5830 10781 5794 10678 5826 C 10583 5854 10491 5959 10490 6040 C 10490 6054 10486 6072 10480 6080 C 10463 6107 10430 6007 10430 5926 C 10430 5864 10433 5851 10453 5833 C 10509 5782 10623 5750 10752 5750 C 10892 5750 10996 5786 11071 5861 C 11131 5921 11150 5969 11150 6068 C 11150 6164 11131 6217 11078 6266 C 11047 6296 10886 6410 10875 6410 C 10865 6410 10718 6514 10678 6550 C 10637 6586 10635 6590 10635 6645 C 10635 6697 10638 6704 10672 6735 C 10737 6795 10851 6806 10945 6760 C 10991 6738 11030 6688 11030 6651 C 11030 6640 11036 6630 11044 6630 C 11060 6630 11075 6807 11059 6826 C 11054 6832 11013 6840 10968 6843 C 10749 6861 10736 6860 10667 6841 z" stroke-linecap="round" />
</g>
<g transform="matrix(0.1333333333 0 0 -0.1333333333 840.2126521464 506.9434224369)" id="xMFuBjMHgA6TT7RtOfWbF"  >
<path style="stroke: none; stroke-width: 1; stroke-dasharray: none; stroke-linecap: butt; stroke-dashoffset: 0; stroke-linejoin: miter; stroke-miterlimit: 4; fill: rgb(0,0,0); fill-rule: nonzero; opacity: 1;"  transform=" translate(-5504.6851716889, -6310)" d="M 5735 6839 C 5713 6835 5563 6831 5403 6831 C 5242 6830 5110 6827 5110 6824 C 5110 6821 5126 6804 5145 6786 L 5180 6753 L 5180 6311 C 5180 5852 5179 5842 5137 5809 C 5092 5773 5120 5770 5480 5770 C 5856 5770 5854 5770 5864 5823 C 5867 5835 5876 5877 5884 5915 C 5902 5994 5904 6040 5891 6040 C 5886 6040 5877 6025 5871 6008 C 5855 5960 5792 5897 5729 5866 C 5676 5841 5667 5840 5544 5842 L 5415 5845 L 5415 6050 L 5415 6255 L 5543 6255 C 5668 6255 5672 6254 5691 6230 C 5702 6216 5715 6195 5720 6182 C 5740 6135 5750 6173 5750 6295 C 5750 6363 5746 6421 5742 6424 C 5737 6427 5726 6414 5717 6395 C 5708 6376 5688 6354 5672 6346 C 5638 6329 5435 6321 5420 6336 C 5413 6343 5411 6426 5412 6556 L 5415 6765 L 5540 6768 C 5609 6770 5680 6768 5698 6765 C 5735 6758 5794 6704 5814 6657 C 5827 6627 5828 6632 5829 6738 L 5830 6850 L 5803 6849 C 5787 6848 5757 6844 5735 6839 z" stroke-linecap="round" />
</g>
<g transform="matrix(0.1333333333 0 0 -0.1333333333 1116.3528677827 506.9434224369)" id="OddlJp9yQrx_N8vq6cg55"  >
<path style="stroke: none; stroke-width: 1; stroke-dasharray: none; stroke-linecap: butt; stroke-dashoffset: 0; stroke-linejoin: miter; stroke-miterlimit: 4; fill: rgb(0,0,0); fill-rule: nonzero; opacity: 1;"  transform=" translate(-7575.7367889613, -6310)" d="M 7780 6840 C 7750 6836 7604 6832 7457 6832 C 7309 6832 7186 6829 7182 6826 C 7179 6822 7192 6807 7211 6791 L 7245 6762 L 7248 6339 C 7250 6106 7248 5900 7245 5881 C 7241 5861 7225 5834 7207 5818 C 7182 5794 7179 5787 7191 5779 C 7199 5774 7361 5770 7552 5770 L 7900 5770 L 7915 5794 C 7924 5807 7935 5842 7940 5871 C 7945 5901 7954 5941 7960 5960 C 7974 6008 7973 6043 7958 6038 C 7951 6035 7944 6024 7942 6012 C 7937 5980 7840 5885 7787 5861 C 7745 5842 7725 5840 7607 5842 L 7475 5845 L 7475 6050 L 7475 6255 L 7597 6258 L 7719 6261 L 7753 6230 C 7772 6213 7791 6188 7794 6174 C 7798 6161 7805 6152 7810 6155 C 7821 6162 7824 6423 7813 6434 C 7809 6438 7799 6426 7790 6408 C 7763 6350 7720 6330 7616 6328 C 7501 6326 7488 6328 7478 6343 C 7474 6349 7470 6446 7470 6556 C 7470 6731 7472 6759 7486 6764 C 7495 6767 7560 6770 7632 6770 C 7746 6770 7767 6767 7800 6749 C 7821 6737 7843 6717 7849 6704 C 7855 6691 7866 6680 7875 6680 C 7887 6680 7890 6696 7890 6765 L 7890 6850 L 7863 6849 C 7847 6848 7810 6844 7780 6840 z" stroke-linecap="round" />
</g>
<g transform="matrix(0.1333333333 0 0 -0.1333333333 1264.5898564151 507.3875603501)" id="Wu_ub-X3nC1b060Lh1TYs"  >
<path style="stroke: none; stroke-width: 1; stroke-dasharray: none; stroke-linecap: butt; stroke-dashoffset: 0; stroke-linejoin: miter; stroke-miterlimit: 4; fill: rgb(0,0,0); fill-rule: nonzero; opacity: 1;"  transform=" translate(-8687.5142037042, -6306.6689656507)" d="M 8187 6843 C 8183 6840 8180 6612 8180 6338 L 8180 5839 L 8153 5814 C 8112 5776 8133 5770 8302 5770 C 8455 5770 8482 5777 8443 5809 C 8403 5842 8400 5870 8400 6170 C 8400 6505 8392 6489 8507 6382 C 8584 6310 8874 6033 8976 5935 C 9108 5807 9151 5769 9161 5772 C 9168 5774 9171 5946 9170 6268 L 9169 6760 L 9194 6785 C 9208 6799 9224 6810 9230 6810 C 9235 6810 9240 6815 9240 6820 C 9240 6826 9175 6830 9065 6830 C 8951 6830 8890 6826 8890 6820 C 8890 6814 8897 6807 8905 6803 C 8945 6788 8949 6754 8950 6445 C 8951 6281 8949 6146 8946 6143 C 8941 6138 8885 6189 8655 6409 C 8422 6631 8352 6698 8274 6773 C 8230 6815 8190 6847 8187 6843 z" stroke-linecap="round" />
</g>
<g transform="matrix(0.1333333333 0 0 -0.1333333333 654.2546292545 508.3349055581)" id="A3tvIWxeaV3cy_fV6Sqh0"  >
<path style="stroke: none; stroke-width: 1; stroke-dasharray: none; stroke-linecap: butt; stroke-dashoffset: 0; stroke-linejoin: miter; stroke-miterlimit: 4; fill: rgb(0,0,0); fill-rule: nonzero; opacity: 1;"  transform=" translate(-4110, -6299.5638765906)" d="M 3600 6820 C 3600 6814 3607 6807 3615 6803 C 3624 6800 3640 6780 3650 6759 C 3669 6723 3670 6698 3670 6306 C 3670 5878 3668 5856 3628 5813 C 3617 5801 3611 5787 3615 5781 C 3623 5767 3929 5766 3950 5780 C 3963 5788 3961 5793 3938 5812 C 3924 5825 3907 5845 3901 5857 C 3894 5872 3890 6017 3890 6309 C 3890 6811 3882 6776 3991 6767 C 4098 6758 4144 6724 4174 6636 C 4203 6546 4190 6451 4136 6377 C 4115 6348 4046 6310 4014 6310 C 4004 6310 3988 6305 3980 6300 C 3968 6292 3970 6285 3997 6258 C 4027 6226 4046 6193 4126 6025 C 4214 5840 4286 5790 4487 5775 C 4578 5768 4620 5773 4620 5791 C 4620 5796 4608 5805 4594 5810 C 4555 5825 4484 5906 4405 6025 C 4331 6136 4280 6198 4244 6221 C 4209 6242 4208 6244 4226 6257 C 4237 6265 4264 6280 4286 6291 C 4339 6316 4361 6341 4399 6415 C 4425 6465 4430 6486 4430 6545 C 4429 6664 4379 6743 4270 6794 L 4205 6825 L 3903 6828 C 3686 6831 3600 6828 3600 6820 z" stroke-linecap="round" />
</g>
<g transform="matrix(0.1333333333 0 0 -0.1333333333 974.1921324995 509.9284822107)" id="9Xtv6ihYZX5kR0ZyIs7IF"  >
<path style="stroke: none; stroke-width: 1; stroke-dasharray: none; stroke-linecap: butt; stroke-dashoffset: 0; stroke-linejoin: miter; stroke-miterlimit: 4; fill: rgb(0,0,0); fill-rule: nonzero; opacity: 1;"  transform=" translate(-6509.5312743374, -6287.612051696)" d="M 5965 6820 C 5962 6815 5963 6810 5969 6810 C 5999 6810 6047 6747 6093 6650 C 6120 6592 6161 6504 6186 6454 C 6210 6404 6230 6361 6230 6357 C 6230 6354 6262 6285 6301 6203 C 6340 6122 6381 6035 6392 6010 C 6403 5985 6430 5929 6451 5885 C 6472 5841 6494 5792 6500 5775 L 6512 5745 L 6531 5769 C 6542 5782 6553 5804 6557 5819 C 6563 5846 6591 5909 6666 6067 C 6690 6118 6710 6162 6710 6164 C 6710 6167 6735 6224 6766 6292 C 6797 6360 6840 6456 6862 6505 C 6973 6750 6997 6791 7041 6805 C 7051 6809 7058 6816 7055 6821 C 7048 6832 6820 6833 6820 6822 C 6820 6818 6829 6807 6840 6797 C 6851 6788 6860 6771 6860 6759 C 6860 6736 6776 6529 6753 6495 C 6746 6484 6740 6470 6740 6462 C 6740 6455 6727 6422 6710 6388 C 6694 6355 6680 6324 6680 6319 C 6680 6314 6667 6282 6652 6248 C 6636 6213 6618 6172 6611 6157 C 6596 6120 6572 6125 6555 6170 C 6540 6212 6446 6441 6424 6490 C 6367 6615 6320 6736 6320 6755 C 6320 6764 6331 6782 6344 6795 C 6357 6808 6365 6821 6362 6824 C 6352 6835 5971 6830 5965 6820 z" stroke-linecap="round" />
</g>
</svg>