<?xml version="1.0" encoding="UTF-8" standalone="no" ?>
<!DOCTYPE svg PUBLIC "-//W3C//DTD SVG 1.1//EN" "http://www.w3.org/Graphics/SVG/1.1/DTD/svg11.dtd">
<svg xmlns="http://www.w3.org/2000/svg" xmlns:xlink="http://www.w3.org/1999/xlink" version="1.1" width="1997.9999399999997" height="1253.99996" viewBox="0 -1.1368683772161603e-13 1997.99994 1253.9999600000003" xml:space="preserve">
<desc>Created with Fabric.js 5.3.0</desc>
<defs>
</defs>
<g transform="matrix(0.1333333333 0 0 -0.1333333333 707.471095212 249.8569910602)" id="roBlHV5qeflj2UYvRSF4-"  >
<path style="stroke: none; stroke-width: 1; stroke-dasharray: none; stroke-linecap: butt; stroke-dashoffset: 0; stroke-linejoin: miter; stroke-miterlimit: 4; fill: rgb(205,125,20); fill-rule: nonzero; opacity: 1;"  transform=" translate(-4739.5614640621, -10454.7567338641)" d="M 4217 11094 C 4152 11081 4127 11062 4099 11008 C 4081 10973 4080 10941 4080 10448 C 4080 9861 4076 9895 4156 9834 L 4193 9805 L 4734 9805 L 5275 9805 L 5316 9832 C 5396 9884 5395 9873 5398 10409 C 5402 10949 5398 10999 5347 11048 C 5329 11065 5295 11084 5270 11090 C 5208 11107 4299 11110 4217 11094 z M 5260 10960 C 5279 10941 5280 10927 5280 10450 L 5280 9961 L 5258 9940 C 5237 9920 5226 9920 4734 9920 L 4231 9920 L 4211 9946 C 4190 9972 4190 9982 4190 10456 C 4190 10927 4191 10941 4210 10960 C 4229 10979 4243 10980 4735 10980 C 5227 10980 5241 10979 5260 10960 z" stroke-linecap="round" />
</g>
<g transform="matrix(0.1333333333 0 0 -0.1333333333 706.6401361363 250.6646023949)" id="YYLEBupruWlyGm1VRcPfP"  >
<path style="stroke: none; stroke-width: 1; stroke-dasharray: none; stroke-linecap: butt; stroke-dashoffset: 0; stroke-linejoin: miter; stroke-miterlimit: 4; fill: rgb(205,125,20); fill-rule: nonzero; opacity: 1;"  transform=" translate(-4733.3292709944, -10448.6996488539)" d="M 4543 10761 C 4525 10756 4495 10741 4475 10726 C 4420 10684 4407 10624 4413 10432 C 4418 10239 4426 10211 4486 10172 C 4542 10134 4606 10126 4797 10132 C 4952 10137 4980 10146 5027 10207 L 5055 10243 L 5055 10445 C 5055 10672 5049 10694 4982 10741 C 4948 10764 4939 10765 4761 10767 C 4659 10768 4560 10765 4543 10761 z M 4922 10633 C 4938 10619 4940 10599 4940 10452 C 4940 10312 4937 10284 4923 10268 C 4909 10252 4889 10250 4739 10250 C 4554 10250 4546 10252 4535 10314 C 4523 10375 4534 10616 4549 10633 C 4560 10648 4587 10650 4733 10650 C 4878 10650 4906 10647 4922 10633 z" stroke-linecap="round" />
</g>
<g transform="matrix(0.1333333333 0 0 -0.1333333333 1019.5438145918 249.9583162679)" id="jum7d7UUad3dMDoQ3Nn6o"  >
<path style="stroke: none; stroke-width: 1; stroke-dasharray: none; stroke-linecap: butt; stroke-dashoffset: 0; stroke-linejoin: miter; stroke-miterlimit: 4; fill: rgb(205,125,20); fill-rule: nonzero; opacity: 1;"  transform=" translate(-7080.1068594104, -10453.9967948059)" d="M 6914 11100 L 6524 11095 L 6489 11066 C 6418 11007 6421 11034 6420 10452 C 6420 9868 6416 9898 6492 9839 L 6534 9805 L 7081 9805 L 7627 9805 L 7672 9842 C 7707 9870 7720 9890 7729 9924 C 7744 9986 7744 10914 7729 10975 C 7714 11035 7658 11086 7598 11095 C 7532 11104 7344 11105 6914 11100 z M 7604 10964 C 7618 10950 7620 10890 7620 10455 C 7620 10000 7619 9961 7603 9941 C 7585 9920 7580 9920 7083 9919 C 6807 9918 6576 9921 6570 9925 C 6533 9948 6530 9988 6530 10460 C 6530 10919 6532 10951 6564 10972 C 6570 10976 6803 10980 7082 10980 C 7529 10980 7590 10978 7604 10964 z" stroke-linecap="round" />
</g>
<g transform="matrix(0.1333333333 0 0 -0.1333333333 1018.5295666704 250.3449679223)" id="m4Bbfv4cBjcr7FawAVfpV"  >
<path style="stroke: none; stroke-width: 1; stroke-dasharray: none; stroke-linecap: butt; stroke-dashoffset: 0; stroke-linejoin: miter; stroke-miterlimit: 4; fill: rgb(205,125,20); fill-rule: nonzero; opacity: 1;"  transform=" translate(-7072.5, -10451.0969073979)" d="M 6884 10761 C 6781 10735 6750 10661 6750 10437 C 6750 10298 6752 10285 6776 10234 C 6796 10192 6811 10174 6843 10157 C 6882 10136 6897 10135 7080 10135 C 7267 10135 7277 10136 7312 10158 C 7333 10171 7360 10196 7372 10213 C 7394 10244 7395 10253 7395 10446 C 7395 10672 7388 10701 7320 10743 C 7288 10763 7271 10765 7100 10767 C 6998 10768 6901 10765 6884 10761 z M 7270 10623 C 7290 10597 7292 10586 7288 10444 C 7284 10238 7296 10250 7080 10250 C 6865 10250 6876 10240 6872 10432 C 6866 10660 6857 10650 7080 10650 L 7249 10650 L 7270 10623 z" stroke-linecap="round" />
</g>
<g transform="matrix(0.1333333333 0 0 -0.1333333333 866.4381500704 222.0273276639)" id="lawZMPqd62Fx6DthT2Z4S"  >
<path style="stroke: none; stroke-width: 1; stroke-dasharray: none; stroke-linecap: butt; stroke-dashoffset: 0; stroke-linejoin: miter; stroke-miterlimit: 4; fill: rgb(205,125,20); fill-rule: nonzero; opacity: 1;"  transform=" translate(-5931.8143755003, -10663.4792093364)" d="M 5888 10971 C 5869 10945 5869 10367 5888 10349 C 5905 10331 5969 10333 5981 10351 C 5993 10371 5993 10946 5980 10971 C 5966 10997 5906 10997 5888 10971 z" stroke-linecap="round" />
</g>
<g transform="matrix(0.1333333333 0 0 -0.1333333333 866.4461671782 305.4854922734)" id="TDqhdw9F5HxEMbpkAhqbr"  >
<path style="stroke: none; stroke-width: 1; stroke-dasharray: none; stroke-linecap: butt; stroke-dashoffset: 0; stroke-linejoin: miter; stroke-miterlimit: 4; fill: rgb(205,125,20); fill-rule: nonzero; opacity: 1;"  transform=" translate(-5931.8745038088, -10037.5429747651)" d="M 5896 10167 C 5874 10145 5873 10136 5874 10027 C 5875 9949 5879 9907 5888 9898 C 5905 9881 5969 9883 5981 9901 C 5986 9908 5990 9968 5990 10033 C 5990 10137 5988 10152 5970 10170 C 5944 10196 5924 10195 5896 10167 z" stroke-linecap="round" />
</g>
<g transform="matrix(0.1333333333 0 0 -0.1333333333 879.4817132043 401.7662847021)" id="3iCdovuCTL7AfX6gFcGXN"  >
<path style="stroke: none; stroke-width: 1; stroke-dasharray: none; stroke-linecap: butt; stroke-dashoffset: 0; stroke-linejoin: miter; stroke-miterlimit: 4; fill: rgb(205,125,20); fill-rule: nonzero; opacity: 1;"  transform=" translate(-6029.6410990039, -9315.4370315494)" d="M 5896 9517 C 5882 9506 5878 9483 5875 9370 C 5872 9277 5866 9234 5858 9228 C 5843 9219 5775 9218 5744 9226 C 5716 9233 5693 9288 5685 9364 C 5678 9434 5654 9473 5600 9500 C 5563 9519 5539 9520 5127 9520 C 4719 9520 4692 9519 4677 9502 C 4658 9481 4656 9457 4670 9429 C 4680 9411 4694 9410 4965 9410 C 5209 9410 5251 9408 5264 9394 C 5277 9382 5280 9354 5280 9260 C 5280 9166 5283 9138 5296 9126 C 5315 9107 5364 9105 5378 9123 C 5383 9129 5390 9191 5392 9259 C 5398 9399 5404 9410 5472 9410 C 5545 9410 5579 9378 5580 9311 C 5580 9262 5614 9180 5647 9148 L 5681 9115 L 5883 9110 C 6134 9104 6180 9109 6218 9147 C 6257 9185 6280 9236 6280 9280 C 6280 9404 6297 9412 6541 9408 L 6722 9405 L 6744 9379 C 6762 9358 6768 9336 6773 9272 C 6778 9197 6781 9188 6812 9155 C 6855 9109 6895 9103 7150 9101 C 7362 9100 7393 9106 7398 9150 C 7400 9164 7394 9184 7386 9195 C 7373 9214 7357 9215 7146 9220 C 6876 9226 6889 9220 6881 9344 C 6870 9502 6837 9519 6524 9520 C 6221 9520 6181 9503 6173 9368 C 6166 9248 6145 9220 6067 9220 C 5988 9220 5990 9218 5990 9362 C 5990 9433 5985 9500 5980 9511 C 5968 9533 5923 9537 5896 9517 z" stroke-linecap="round" />
</g>
<g transform="matrix(0.1333333333 0 0 -0.1333333333 666.9211196944 402.4958275811)" id="tySJiqrLZMli-Aam5NXZu"  >
<path style="stroke: none; stroke-width: 1; stroke-dasharray: none; stroke-linecap: butt; stroke-dashoffset: 0; stroke-linejoin: miter; stroke-miterlimit: 4; fill: rgb(205,125,20); fill-rule: nonzero; opacity: 1;"  transform=" translate(-4435.4366476803, -9309.9654599574)" d="M 4402 9497 C 4382 9476 4380 9463 4380 9359 C 4380 9283 4376 9240 4368 9232 C 4360 9224 4317 9220 4240 9220 C 4131 9220 4122 9218 4102 9197 C 4074 9168 4074 9148 4101 9124 C 4121 9106 4144 9105 4432 9102 C 4777 9099 4790 9101 4790 9160 C 4790 9212 4771 9220 4649 9220 C 4588 9220 4530 9225 4519 9230 C 4502 9240 4500 9252 4500 9354 C 4500 9453 4497 9471 4479 9494 C 4454 9526 4430 9527 4402 9497 z" stroke-linecap="round" />
</g>
<g transform="matrix(0.1333333333 0 0 -0.1333333333 1054.7733569537 390.4503162045)" id="RAf1ga6a-oiuS_TgfEjQs"  >
<path style="stroke: none; stroke-width: 1; stroke-dasharray: none; stroke-linecap: butt; stroke-dashoffset: 0; stroke-linejoin: miter; stroke-miterlimit: 4; fill: rgb(205,125,20); fill-rule: nonzero; opacity: 1;"  transform=" translate(-7344.3284271247, -9400.306795282)" d="M 7307 9502 C 7294 9488 7290 9463 7290 9397 C 7290 9315 7291 9310 7316 9293 C 7340 9278 7345 9278 7369 9291 C 7394 9305 7395 9310 7398 9394 C 7400 9466 7398 9486 7384 9501 C 7362 9525 7328 9525 7307 9502 z" stroke-linecap="round" />
</g>
<g transform="matrix(0.1333333333 0 0 -0.1333333333 1100.1962333371 401.7454481566)" id="ZtrhgTabB4vdG1AHIJaLz"  >
<path style="stroke: none; stroke-width: 1; stroke-dasharray: none; stroke-linecap: butt; stroke-dashoffset: 0; stroke-linejoin: miter; stroke-miterlimit: 4; fill: rgb(205,125,20); fill-rule: nonzero; opacity: 1;"  transform=" translate(-7685, -9315.5933056413)" d="M 7638 9495 C 7623 9475 7620 9448 7620 9313 C 7620 9177 7623 9152 7638 9132 C 7652 9114 7664 9109 7690 9112 C 7742 9117 7750 9141 7750 9308 C 7750 9481 7738 9520 7686 9520 C 7665 9519 7649 9512 7638 9495 z" stroke-linecap="round" />
</g>
<g transform="matrix(0.1333333333 0 0 -0.1333333333 741.9495898453 414.4699546241)" id="gYtBpuxK8ct080g8uXY5c"  >
<path style="stroke: none; stroke-width: 1; stroke-dasharray: none; stroke-linecap: butt; stroke-dashoffset: 0; stroke-linejoin: miter; stroke-miterlimit: 4; fill: rgb(205,125,20); fill-rule: nonzero; opacity: 1;"  transform=" translate(-4998.1501738119, -9220.1595071346)" d="M 4956 9318 C 4944 9302 4940 9272 4940 9213 C 4940 9140 4942 9130 4962 9116 C 4989 9097 5011 9096 5033 9113 C 5055 9129 5065 9273 5047 9310 C 5030 9345 4978 9350 4956 9318 z" stroke-linecap="round" />
</g>
<g transform="matrix(0.1333333333 0 0 -0.1333333333 707.1967085728 553.1386175545)" id="Ky3OMQiMnAT-_S0Lzi69_"  >
<path style="stroke: none; stroke-width: 1; stroke-dasharray: none; stroke-linecap: butt; stroke-dashoffset: 0; stroke-linejoin: miter; stroke-miterlimit: 4; fill: rgb(205,125,20); fill-rule: nonzero; opacity: 1;"  transform=" translate(-4737.5035642682, -8180.1445351566)" d="M 4186 8814 C 4136 8796 4123 8784 4099 8739 C 4081 8703 4080 8675 4080 8183 C 4080 7665 4080 7664 4103 7620 C 4118 7588 4137 7569 4165 7555 C 4203 7536 4228 7535 4718 7532 C 5249 7529 5284 7532 5334 7571 C 5397 7620 5395 7605 5395 8160 C 5395 8438 5391 8682 5387 8702 C 5377 8751 5325 8805 5275 8819 C 5248 8826 5071 8830 4730 8829 C 4319 8829 4218 8826 4186 8814 z M 5260 8690 C 5279 8671 5280 8657 5280 8176 L 5280 7681 L 5251 7661 C 5223 7640 5211 7640 4738 7640 C 4274 7640 4254 7641 4223 7660 L 4190 7680 L 4190 8175 C 4190 8657 4191 8671 4210 8690 C 4229 8709 4243 8710 4735 8710 C 5227 8710 5241 8709 5260 8690 z" stroke-linecap="round" />
</g>
<g transform="matrix(0.1333333333 0 0 -0.1333333333 706.589430616 553.2205720685)" id="ZyiXH5JmdnmwAoEcvQpDS"  >
<path style="stroke: none; stroke-width: 1; stroke-dasharray: none; stroke-linecap: butt; stroke-dashoffset: 0; stroke-linejoin: miter; stroke-miterlimit: 4; fill: rgb(205,125,20); fill-rule: nonzero; opacity: 1;"  transform=" translate(-4732.9489795918, -8179.5298763014)" d="M 4538 8486 C 4518 8480 4485 8460 4466 8441 C 4418 8395 4407 8336 4412 8152 C 4415 8019 4417 8000 4440 7955 C 4457 7920 4477 7898 4505 7883 C 4542 7862 4557 7860 4731 7860 C 4942 7860 4975 7869 5027 7937 L 5055 7973 L 5055 8180 L 5055 8387 L 5026 8424 C 4977 8489 4934 8500 4742 8499 C 4647 8498 4559 8493 4538 8486 z M 4923 8361 C 4938 8350 4940 8324 4940 8180 C 4940 8036 4938 8010 4923 7999 C 4900 7979 4567 7979 4548 7998 C 4539 8007 4534 8052 4531 8141 C 4527 8307 4534 8358 4563 8370 C 4599 8385 4904 8378 4923 8361 z" stroke-linecap="round" />
</g>
<g transform="matrix(0.1333333333 0 0 -0.1333333333 984.2067817594 553.7662222421)" id="9SVSR-B_7PF-tdtRD5De5"  >
<path style="stroke: none; stroke-width: 1; stroke-dasharray: none; stroke-linecap: butt; stroke-dashoffset: 0; stroke-linejoin: miter; stroke-miterlimit: 4; fill: rgb(205,125,20); fill-rule: nonzero; opacity: 1;"  transform=" translate(-6815.0791131673, -8175.4375)" d="M 5902 8804 C 5868 8780 5872 8735 5911 8714 C 5939 8700 5990 8698 6339 8701 C 6557 8702 6743 8700 6753 8695 C 6768 8689 6770 8669 6770 8490 C 6770 8381 6773 8278 6776 8261 C 6789 8200 6808 8195 7052 8195 C 7236 8195 7272 8193 7280 8180 C 7286 8171 7290 8037 7290 7864 L 7290 7562 L 7315 7546 C 7348 7524 7366 7526 7384 7552 C 7398 7571 7400 7619 7400 7877 L 7400 8180 L 7427 8191 C 7451 8200 7485 8198 7577 8184 C 7618 8178 7630 8143 7634 8018 C 7639 7889 7638 7893 7656 7876 C 7679 7852 7715 7856 7734 7885 C 7757 7920 7757 8156 7734 8224 C 7710 8293 7691 8302 7545 8309 C 7476 8313 7416 8320 7411 8325 C 7405 8331 7400 8425 7398 8535 C 7395 8725 7394 8737 7372 8767 C 7358 8787 7335 8803 7312 8810 C 7288 8816 7032 8820 6600 8820 C 6005 8820 5922 8818 5902 8804 z M 7260 8697 L 7285 8684 L 7285 8513 C 7285 8385 7282 8338 7272 8328 C 7253 8309 6917 8309 6898 8328 C 6888 8338 6885 8385 6885 8513 L 6885 8684 L 6910 8697 C 6927 8706 6984 8710 7085 8710 C 7186 8710 7243 8706 7260 8697 z" stroke-linecap="round" />
</g>
<g transform="matrix(0.1333333333 0 0 -0.1333333333 926.1962333371 587.9128158341)" id="KYhc7PXUk_TKlzikpdT3j"  >
<path style="stroke: none; stroke-width: 1; stroke-dasharray: none; stroke-linecap: butt; stroke-dashoffset: 0; stroke-linejoin: miter; stroke-miterlimit: 4; fill: rgb(205,125,20); fill-rule: nonzero; opacity: 1;"  transform=" translate(-6380, -7919.3380480594)" d="M 5908 8299 C 5885 8290 5880 8282 5880 8255 C 5880 8193 5895 8190 6153 8190 C 6291 8190 6389 8186 6401 8180 C 6416 8171 6420 8158 6420 8117 C 6420 8080 6428 8048 6446 8012 C 6480 7944 6524 7920 6613 7920 C 6702 7920 6739 7911 6753 7886 C 6760 7873 6767 7804 6770 7710 C 6775 7556 6775 7556 6801 7541 C 6825 7528 6830 7528 6854 7543 L 6880 7560 L 6880 7751 C 6880 8011 6874 8020 6700 8027 C 6648 8029 6596 8033 6585 8035 C 6551 8042 6536 8080 6530 8173 C 6521 8311 6537 8305 6207 8307 C 6039 8308 5924 8305 5908 8299 z" stroke-linecap="round" />
</g>
<g transform="matrix(0.1333333333 0 0 -0.1333333333 866.5755463786 606.5425365161)" id="RjmuOAPBXYY9A83wg1RwY"  >
<path style="stroke: none; stroke-width: 1; stroke-dasharray: none; stroke-linecap: butt; stroke-dashoffset: 0; stroke-linejoin: miter; stroke-miterlimit: 4; fill: rgb(205,125,20); fill-rule: nonzero; opacity: 1;"  transform=" translate(-5932.8448478116, -7779.6151429447)" d="M 5899 8011 C 5875 7992 5875 7991 5876 7775 C 5876 7574 5877 7557 5895 7544 C 5920 7525 5955 7526 5974 7546 C 5988 7559 5990 7594 5990 7776 C 5990 7977 5989 7991 5970 8010 C 5945 8035 5929 8035 5899 8011 z" stroke-linecap="round" />
</g>
<g transform="matrix(0.1333333333 0 0 -0.1333333333 506.2749074054 829.7409000592)" id="vPGpjzRJ_WNj1ui2t5INT"  >
<path style="stroke: none; stroke-width: 1; stroke-dasharray: none; stroke-linecap: butt; stroke-dashoffset: 0; stroke-linejoin: miter; stroke-miterlimit: 4; fill: rgb(0,0,0); fill-rule: nonzero; opacity: 1;"  transform=" translate(-3230.5900555126, -6105.6274163718)" d="M 2770 6853 C 2712 6846 2590 6820 2572 6811 C 2384 6719 2299 6617 2255 6432 C 2241 6376 2239 6336 2243 6267 C 2254 6106 2300 5999 2401 5906 C 2506 5809 2616 5765 2795 5750 C 2884 5743 2985 5711 3050 5671 C 3058 5666 3094 5644 3129 5623 C 3164 5602 3204 5577 3219 5568 C 3233 5558 3262 5542 3282 5530 C 3302 5519 3338 5498 3362 5482 C 3386 5467 3441 5440 3485 5423 C 3652 5358 3665 5355 3815 5356 C 3944 5356 3959 5359 4010 5382 C 4130 5438 4220 5537 4220 5614 C 4220 5657 4214 5658 4166 5625 C 4146 5611 4126 5600 4121 5600 C 4117 5600 4100 5594 4084 5586 C 4025 5558 3895 5546 3786 5559 C 3698 5570 3474 5629 3445 5650 C 3431 5660 3172 5747 3132 5755 C 3096 5762 3091 5786 3123 5801 C 3132 5806 3148 5815 3158 5820 C 3167 5826 3186 5835 3199 5840 C 3212 5846 3251 5879 3284 5913 C 3449 6081 3485 6350 3372 6575 C 3308 6703 3172 6803 3016 6834 C 2934 6851 2821 6860 2770 6853 z M 2952 6770 C 3009 6753 3092 6672 3129 6595 C 3249 6352 3174 5943 2994 5856 C 2972 5846 2948 5834 2938 5829 C 2900 5810 2823 5808 2765 5825 C 2637 5862 2567 5937 2520 6087 C 2490 6182 2483 6351 2504 6450 C 2523 6538 2542 6596 2558 6612 C 2565 6619 2570 6629 2570 6635 C 2572 6668 2677 6754 2741 6775 C 2789 6791 2891 6788 2952 6770 z" stroke-linecap="round" />
</g>
<g transform="matrix(0.1333333333 0 0 -0.1333333333 1387.6379000037 801.9926590379)" id="pUR75CYM5yfWN90yLBROB"  >
<path style="stroke: none; stroke-width: 1; stroke-dasharray: none; stroke-linecap: butt; stroke-dashoffset: 0; stroke-linejoin: miter; stroke-miterlimit: 4; fill: rgb(0,0,0); fill-rule: nonzero; opacity: 1;"  transform=" translate(-9840.8125, -6313.7392240311)" d="M 9355 6848 C 9352 6840 9351 6787 9352 6729 C 9355 6628 9368 6594 9380 6655 C 9390 6700 9417 6736 9455 6754 C 9482 6767 9515 6770 9607 6768 L 9725 6765 L 9728 6325 C 9729 6083 9728 5874 9725 5862 C 9722 5849 9708 5828 9694 5815 C 9680 5802 9671 5786 9675 5781 C 9683 5767 9989 5766 10009 5779 C 10021 5787 10018 5794 9992 5818 L 9960 5848 L 9962 6307 L 9965 6765 L 10083 6768 C 10187 6770 10206 6768 10233 6751 C 10270 6728 10307 6688 10320 6657 C 10326 6642 10329 6671 10329 6744 L 10330 6852 L 10283 6846 C 10256 6842 10084 6837 9900 6834 C 9593 6829 9473 6834 9388 6855 C 9368 6860 9359 6858 9355 6848 z" stroke-linecap="round" />
</g>
<g transform="matrix(0.1333333333 0 0 -0.1333333333 1514.1962333371 803.4313691933)" id="kaMc-hspRcB4BhB5CbmHL"  >
<path style="stroke: none; stroke-width: 1; stroke-dasharray: none; stroke-linecap: butt; stroke-dashoffset: 0; stroke-linejoin: miter; stroke-miterlimit: 4; fill: rgb(0,0,0); fill-rule: nonzero; opacity: 1;"  transform=" translate(-10790, -6302.9488978661)" d="M 10667 6841 C 10630 6831 10592 6816 10582 6809 C 10487 6737 10455 6676 10456 6565 C 10456 6483 10471 6437 10517 6384 C 10535 6363 10611 6303 10642 6285 C 10652 6280 10694 6251 10735 6223 C 10777 6194 10814 6170 10818 6170 C 10832 6169 10933 6085 10954 6057 C 10980 6022 10979 5944 10954 5900 C 10912 5830 10781 5794 10678 5826 C 10583 5854 10491 5959 10490 6040 C 10490 6054 10486 6072 10480 6080 C 10463 6107 10430 6007 10430 5926 C 10430 5864 10433 5851 10453 5833 C 10509 5782 10623 5750 10752 5750 C 10892 5750 10996 5786 11071 5861 C 11131 5921 11150 5969 11150 6068 C 11150 6164 11131 6217 11078 6266 C 11047 6296 10886 6410 10875 6410 C 10865 6410 10718 6514 10678 6550 C 10637 6586 10635 6590 10635 6645 C 10635 6697 10638 6704 10672 6735 C 10737 6795 10851 6806 10945 6760 C 10991 6738 11030 6688 11030 6651 C 11030 6640 11036 6630 11044 6630 C 11060 6630 11075 6807 11059 6826 C 11054 6832 11013 6840 10968 6843 C 10749 6861 10736 6860 10667 6841 z" stroke-linecap="round" />
</g>
<g transform="matrix(0.1333333333 0 0 -0.1333333333 809.4875895623 802.4912222421)" id="xMFuBjMHgA6TT7RtOfWbF"  >
<path style="stroke: none; stroke-width: 1; stroke-dasharray: none; stroke-linecap: butt; stroke-dashoffset: 0; stroke-linejoin: miter; stroke-miterlimit: 4; fill: rgb(0,0,0); fill-rule: nonzero; opacity: 1;"  transform=" translate(-5504.6851716889, -6310)" d="M 5735 6839 C 5713 6835 5563 6831 5403 6831 C 5242 6830 5110 6827 5110 6824 C 5110 6821 5126 6804 5145 6786 L 5180 6753 L 5180 6311 C 5180 5852 5179 5842 5137 5809 C 5092 5773 5120 5770 5480 5770 C 5856 5770 5854 5770 5864 5823 C 5867 5835 5876 5877 5884 5915 C 5902 5994 5904 6040 5891 6040 C 5886 6040 5877 6025 5871 6008 C 5855 5960 5792 5897 5729 5866 C 5676 5841 5667 5840 5544 5842 L 5415 5845 L 5415 6050 L 5415 6255 L 5543 6255 C 5668 6255 5672 6254 5691 6230 C 5702 6216 5715 6195 5720 6182 C 5740 6135 5750 6173 5750 6295 C 5750 6363 5746 6421 5742 6424 C 5737 6427 5726 6414 5717 6395 C 5708 6376 5688 6354 5672 6346 C 5638 6329 5435 6321 5420 6336 C 5413 6343 5411 6426 5412 6556 L 5415 6765 L 5540 6768 C 5609 6770 5680 6768 5698 6765 C 5735 6758 5794 6704 5814 6657 C 5827 6627 5828 6632 5829 6738 L 5830 6850 L 5803 6849 C 5787 6848 5757 6844 5735 6839 z" stroke-linecap="round" />
</g>
<g transform="matrix(0.1333333333 0 0 -0.1333333333 1085.6278051986 802.4912222421)" id="OddlJp9yQrx_N8vq6cg55"  >
<path style="stroke: none; stroke-width: 1; stroke-dasharray: none; stroke-linecap: butt; stroke-dashoffset: 0; stroke-linejoin: miter; stroke-miterlimit: 4; fill: rgb(0,0,0); fill-rule: nonzero; opacity: 1;"  transform=" translate(-7575.7367889613, -6310)" d="M 7780 6840 C 7750 6836 7604 6832 7457 6832 C 7309 6832 7186 6829 7182 6826 C 7179 6822 7192 6807 7211 6791 L 7245 6762 L 7248 6339 C 7250 6106 7248 5900 7245 5881 C 7241 5861 7225 5834 7207 5818 C 7182 5794 7179 5787 7191 5779 C 7199 5774 7361 5770 7552 5770 L 7900 5770 L 7915 5794 C 7924 5807 7935 5842 7940 5871 C 7945 5901 7954 5941 7960 5960 C 7974 6008 7973 6043 7958 6038 C 7951 6035 7944 6024 7942 6012 C 7937 5980 7840 5885 7787 5861 C 7745 5842 7725 5840 7607 5842 L 7475 5845 L 7475 6050 L 7475 6255 L 7597 6258 L 7719 6261 L 7753 6230 C 7772 6213 7791 6188 7794 6174 C 7798 6161 7805 6152 7810 6155 C 7821 6162 7824 6423 7813 6434 C 7809 6438 7799 6426 7790 6408 C 7763 6350 7720 6330 7616 6328 C 7501 6326 7488 6328 7478 6343 C 7474 6349 7470 6446 7470 6556 C 7470 6731 7472 6759 7486 6764 C 7495 6767 7560 6770 7632 6770 C 7746 6770 7767 6767 7800 6749 C 7821 6737 7843 6717 7849 6704 C 7855 6691 7866 6680 7875 6680 C 7887 6680 7890 6696 7890 6765 L 7890 6850 L 7863 6849 C 7847 6848 7810 6844 7780 6840 z" stroke-linecap="round" />
</g>
<g transform="matrix(0.1333333333 0 0 -0.1333333333 1233.864793831 802.9353601553)" id="Wu_ub-X3nC1b060Lh1TYs"  >
<path style="stroke: none; stroke-width: 1; stroke-dasharray: none; stroke-linecap: butt; stroke-dashoffset: 0; stroke-linejoin: miter; stroke-miterlimit: 4; fill: rgb(0,0,0); fill-rule: nonzero; opacity: 1;"  transform=" translate(-8687.5142037042, -6306.6689656507)" d="M 8187 6843 C 8183 6840 8180 6612 8180 6338 L 8180 5839 L 8153 5814 C 8112 5776 8133 5770 8302 5770 C 8455 5770 8482 5777 8443 5809 C 8403 5842 8400 5870 8400 6170 C 8400 6505 8392 6489 8507 6382 C 8584 6310 8874 6033 8976 5935 C 9108 5807 9151 5769 9161 5772 C 9168 5774 9171 5946 9170 6268 L 9169 6760 L 9194 6785 C 9208 6799 9224 6810 9230 6810 C 9235 6810 9240 6815 9240 6820 C 9240 6826 9175 6830 9065 6830 C 8951 6830 8890 6826 8890 6820 C 8890 6814 8897 6807 8905 6803 C 8945 6788 8949 6754 8950 6445 C 8951 6281 8949 6146 8946 6143 C 8941 6138 8885 6189 8655 6409 C 8422 6631 8352 6698 8274 6773 C 8230 6815 8190 6847 8187 6843 z" stroke-linecap="round" />
</g>
<g transform="matrix(0.1333333333 0 0 -0.1333333333 623.5295666704 803.8827053633)" id="A3tvIWxeaV3cy_fV6Sqh0"  >
<path style="stroke: none; stroke-width: 1; stroke-dasharray: none; stroke-linecap: butt; stroke-dashoffset: 0; stroke-linejoin: miter; stroke-miterlimit: 4; fill: rgb(0,0,0); fill-rule: nonzero; opacity: 1;"  transform=" translate(-4110, -6299.5638765906)" d="M 3600 6820 C 3600 6814 3607 6807 3615 6803 C 3624 6800 3640 6780 3650 6759 C 3669 6723 3670 6698 3670 6306 C 3670 5878 3668 5856 3628 5813 C 3617 5801 3611 5787 3615 5781 C 3623 5767 3929 5766 3950 5780 C 3963 5788 3961 5793 3938 5812 C 3924 5825 3907 5845 3901 5857 C 3894 5872 3890 6017 3890 6309 C 3890 6811 3882 6776 3991 6767 C 4098 6758 4144 6724 4174 6636 C 4203 6546 4190 6451 4136 6377 C 4115 6348 4046 6310 4014 6310 C 4004 6310 3988 6305 3980 6300 C 3968 6292 3970 6285 3997 6258 C 4027 6226 4046 6193 4126 6025 C 4214 5840 4286 5790 4487 5775 C 4578 5768 4620 5773 4620 5791 C 4620 5796 4608 5805 4594 5810 C 4555 5825 4484 5906 4405 6025 C 4331 6136 4280 6198 4244 6221 C 4209 6242 4208 6244 4226 6257 C 4237 6265 4264 6280 4286 6291 C 4339 6316 4361 6341 4399 6415 C 4425 6465 4430 6486 4430 6545 C 4429 6664 4379 6743 4270 6794 L 4205 6825 L 3903 6828 C 3686 6831 3600 6828 3600 6820 z" stroke-linecap="round" />
</g>
<g transform="matrix(0.1333333333 0 0 -0.1333333333 943.4670699154 805.4762820159)" id="9Xtv6ihYZX5kR0ZyIs7IF"  >
<path style="stroke: none; stroke-width: 1; stroke-dasharray: none; stroke-linecap: butt; stroke-dashoffset: 0; stroke-linejoin: miter; stroke-miterlimit: 4; fill: rgb(0,0,0); fill-rule: nonzero; opacity: 1;"  transform=" translate(-6509.5312743374, -6287.612051696)" d="M 5965 6820 C 5962 6815 5963 6810 5969 6810 C 5999 6810 6047 6747 6093 6650 C 6120 6592 6161 6504 6186 6454 C 6210 6404 6230 6361 6230 6357 C 6230 6354 6262 6285 6301 6203 C 6340 6122 6381 6035 6392 6010 C 6403 5985 6430 5929 6451 5885 C 6472 5841 6494 5792 6500 5775 L 6512 5745 L 6531 5769 C 6542 5782 6553 5804 6557 5819 C 6563 5846 6591 5909 6666 6067 C 6690 6118 6710 6162 6710 6164 C 6710 6167 6735 6224 6766 6292 C 6797 6360 6840 6456 6862 6505 C 6973 6750 6997 6791 7041 6805 C 7051 6809 7058 6816 7055 6821 C 7048 6832 6820 6833 6820 6822 C 6820 6818 6829 6807 6840 6797 C 6851 6788 6860 6771 6860 6759 C 6860 6736 6776 6529 6753 6495 C 6746 6484 6740 6470 6740 6462 C 6740 6455 6727 6422 6710 6388 C 6694 6355 6680 6324 6680 6319 C 6680 6314 6667 6282 6652 6248 C 6636 6213 6618 6172 6611 6157 C 6596 6120 6572 6125 6555 6170 C 6540 6212 6446 6441 6424 6490 C 6367 6615 6320 6736 6320 6755 C 6320 6764 6331 6782 6344 6795 C 6357 6808 6365 6821 6362 6824 C 6352 6835 5971 6830 5965 6820 z" stroke-linecap="round" />
</g>
</svg>