<?xml version="1.0" encoding="UTF-8" standalone="no" ?>
<!DOCTYPE svg PUBLIC "-//W3C//DTD SVG 1.1//EN" "http://www.w3.org/Graphics/SVG/1.1/DTD/svg11.dtd">
<svg xmlns="http://www.w3.org/2000/svg" xmlns:xlink="http://www.w3.org/1999/xlink" version="1.1" width="1998pt" height="1254pt" viewBox="0 0 1997.99994 1253.99996" xml:space="preserve">
<desc>Created with Fabric.js 5.3.0</desc>
<defs>
</defs>
<g transform="matrix(0.2504501029 0 0 -0.2504501029 673.9946587589 332.0624975389)" id="TmUHn-QT5J5o2f3XRrnjQ"  >
<path style="stroke: none; stroke-width: 1; stroke-dasharray: none; stroke-linecap: butt; stroke-dashoffset: 0; stroke-linejoin: miter; stroke-miterlimit: 4; fill: rgb(205,125,20); fill-rule: nonzero; opacity: 1;"  transform=" translate(-4739.5614640621, -10454.7567338641)" d="M 4217 11094 C 4152 11081 4127 11062 4099 11008 C 4081 10973 4080 10941 4080 10448 C 4080 9861 4076 9895 4156 9834 L 4193 9805 L 4734 9805 L 5275 9805 L 5316 9832 C 5396 9884 5395 9873 5398 10409 C 5402 10949 5398 10999 5347 11048 C 5329 11065 5295 11084 5270 11090 C 5208 11107 4299 11110 4217 11094 z M 5260 10960 C 5279 10941 5280 10927 5280 10450 L 5280 9961 L 5258 9940 C 5237 9920 5226 9920 4734 9920 L 4231 9920 L 4211 9946 C 4190 9972 4190 9982 4190 10456 C 4190 10927 4191 10941 4210 10960 C 4229 10979 4243 10980 4735 10980 C 5227 10980 5241 10979 5260 10960 z" stroke-linecap="round" />
</g>
<g transform="matrix(0.2504501029 0 0 -0.2504501029 672.4338053634 333.5794951033)" id="jS0HUzjFTFhPbGzkt0vZm"  >
<path style="stroke: none; stroke-width: 1; stroke-dasharray: none; stroke-linecap: butt; stroke-dashoffset: 0; stroke-linejoin: miter; stroke-miterlimit: 4; fill: rgb(205,125,20); fill-rule: nonzero; opacity: 1;"  transform=" translate(-4733.3292709944, -10448.6996488539)" d="M 4543 10761 C 4525 10756 4495 10741 4475 10726 C 4420 10684 4407 10624 4413 10432 C 4418 10239 4426 10211 4486 10172 C 4542 10134 4606 10126 4797 10132 C 4952 10137 4980 10146 5027 10207 L 5055 10243 L 5055 10445 C 5055 10672 5049 10694 4982 10741 C 4948 10764 4939 10765 4761 10767 C 4659 10768 4560 10765 4543 10761 z M 4922 10633 C 4938 10619 4940 10599 4940 10452 C 4940 10312 4937 10284 4923 10268 C 4909 10252 4889 10250 4739 10250 C 4554 10250 4546 10252 4535 10314 C 4523 10375 4534 10616 4549 10633 C 4560 10648 4587 10650 4733 10650 C 4878 10650 4906 10647 4922 10633 z" stroke-linecap="round" />
</g>
<g transform="matrix(0.2504501029 0 0 -0.2504501029 1260.1844939939 332.2528243541)" id="39hRAtcrD084ziWDWM8zO"  >
<path style="stroke: none; stroke-width: 1; stroke-dasharray: none; stroke-linecap: butt; stroke-dashoffset: 0; stroke-linejoin: miter; stroke-miterlimit: 4; fill: rgb(205,125,20); fill-rule: nonzero; opacity: 1;"  transform=" translate(-7080.1068594104, -10453.9967948059)" d="M 6914 11100 L 6524 11095 L 6489 11066 C 6418 11007 6421 11034 6420 10452 C 6420 9868 6416 9898 6492 9839 L 6534 9805 L 7081 9805 L 7627 9805 L 7672 9842 C 7707 9870 7720 9890 7729 9924 C 7744 9986 7744 10914 7729 10975 C 7714 11035 7658 11086 7598 11095 C 7532 11104 7344 11105 6914 11100 z M 7604 10964 C 7618 10950 7620 10890 7620 10455 C 7620 10000 7619 9961 7603 9941 C 7585 9920 7580 9920 7083 9919 C 6807 9918 6576 9921 6570 9925 C 6533 9948 6530 9988 6530 10460 C 6530 10919 6532 10951 6564 10972 C 6570 10976 6803 10980 7082 10980 C 7529 10980 7590 10978 7604 10964 z" stroke-linecap="round" />
</g>
<g transform="matrix(0.2504501029 0 0 -0.2504501029 1258.2793552713 332.9791014541)" id="2Twt-fmypfR_psQLdogfP"  >
<path style="stroke: none; stroke-width: 1; stroke-dasharray: none; stroke-linecap: butt; stroke-dashoffset: 0; stroke-linejoin: miter; stroke-miterlimit: 4; fill: rgb(205,125,20); fill-rule: nonzero; opacity: 1;"  transform=" translate(-7072.5, -10451.0969073979)" d="M 6884 10761 C 6781 10735 6750 10661 6750 10437 C 6750 10298 6752 10285 6776 10234 C 6796 10192 6811 10174 6843 10157 C 6882 10136 6897 10135 7080 10135 C 7267 10135 7277 10136 7312 10158 C 7333 10171 7360 10196 7372 10213 C 7394 10244 7395 10253 7395 10446 C 7395 10672 7388 10701 7320 10743 C 7288 10763 7271 10765 7100 10767 C 6998 10768 6901 10765 6884 10761 z M 7270 10623 C 7290 10597 7292 10586 7288 10444 C 7284 10238 7296 10250 7080 10250 C 6865 10250 6876 10240 6872 10432 C 6866 10660 6857 10650 7080 10650 L 7249 10650 L 7270 10623 z" stroke-linecap="round" />
</g>
<g transform="matrix(0.2504501029 0 0 -0.2504501029 972.5945231765 279.7879320679)" id="KvBffmYd1_srHhLb_sDW_"  >
<path style="stroke: none; stroke-width: 1; stroke-dasharray: none; stroke-linecap: butt; stroke-dashoffset: 0; stroke-linejoin: miter; stroke-miterlimit: 4; fill: rgb(205,125,20); fill-rule: nonzero; opacity: 1;"  transform=" translate(-5931.8143755003, -10663.4792093364)" d="M 5888 10971 C 5869 10945 5869 10367 5888 10349 C 5905 10331 5969 10333 5981 10351 C 5993 10371 5993 10946 5980 10971 C 5966 10997 5906 10997 5888 10971 z" stroke-linecap="round" />
</g>
<g transform="matrix(0.2504501029 0 0 -0.2504501029 972.6095823176 436.5537264594)" id="H2lHyY-gssJmzbrXekSKw"  >
<path style="stroke: none; stroke-width: 1; stroke-dasharray: none; stroke-linecap: butt; stroke-dashoffset: 0; stroke-linejoin: miter; stroke-miterlimit: 4; fill: rgb(205,125,20); fill-rule: nonzero; opacity: 1;"  transform=" translate(-5931.8745038088, -10037.5429747651)" d="M 5896 10167 C 5874 10145 5873 10136 5874 10027 C 5875 9949 5879 9907 5888 9898 C 5905 9881 5969 9883 5981 9901 C 5986 9908 5990 9968 5990 10033 C 5990 10137 5988 10152 5970 10170 C 5944 10196 5924 10195 5896 10167 z" stroke-linecap="round" />
</g>
<g transform="matrix(0.2504501029 0 0 -0.2504501029 997.0952361499 617.4052342819)" id="t7CLVeHdtf8HtBBej2PXj"  >
<path style="stroke: none; stroke-width: 1; stroke-dasharray: none; stroke-linecap: butt; stroke-dashoffset: 0; stroke-linejoin: miter; stroke-miterlimit: 4; fill: rgb(205,125,20); fill-rule: nonzero; opacity: 1;"  transform=" translate(-6029.6410990039, -9315.4370315494)" d="M 5896 9517 C 5882 9506 5878 9483 5875 9370 C 5872 9277 5866 9234 5858 9228 C 5843 9219 5775 9218 5744 9226 C 5716 9233 5693 9288 5685 9364 C 5678 9434 5654 9473 5600 9500 C 5563 9519 5539 9520 5127 9520 C 4719 9520 4692 9519 4677 9502 C 4658 9481 4656 9457 4670 9429 C 4680 9411 4694 9410 4965 9410 C 5209 9410 5251 9408 5264 9394 C 5277 9382 5280 9354 5280 9260 C 5280 9166 5283 9138 5296 9126 C 5315 9107 5364 9105 5378 9123 C 5383 9129 5390 9191 5392 9259 C 5398 9399 5404 9410 5472 9410 C 5545 9410 5579 9378 5580 9311 C 5580 9262 5614 9180 5647 9148 L 5681 9115 L 5883 9110 C 6134 9104 6180 9109 6218 9147 C 6257 9185 6280 9236 6280 9280 C 6280 9404 6297 9412 6541 9408 L 6722 9405 L 6744 9379 C 6762 9358 6768 9336 6773 9272 C 6778 9197 6781 9188 6812 9155 C 6855 9109 6895 9103 7150 9101 C 7362 9100 7393 9106 7398 9150 C 7400 9164 7394 9184 7386 9195 C 7373 9214 7357 9215 7146 9220 C 6876 9226 6889 9220 6881 9344 C 6870 9502 6837 9519 6524 9520 C 6221 9520 6181 9503 6173 9368 C 6166 9248 6145 9220 6067 9220 C 5988 9220 5990 9218 5990 9362 C 5990 9433 5985 9500 5980 9511 C 5968 9533 5923 9537 5896 9517 z" stroke-linecap="round" />
</g>
<g transform="matrix(0.2504501029 0 0 -0.2504501029 597.8265671849 618.7755899503)" id="OydyrBDF7ugOwHtFgs6F4"  >
<path style="stroke: none; stroke-width: 1; stroke-dasharray: none; stroke-linecap: butt; stroke-dashoffset: 0; stroke-linejoin: miter; stroke-miterlimit: 4; fill: rgb(205,125,20); fill-rule: nonzero; opacity: 1;"  transform=" translate(-4435.4366476803, -9309.9654599574)" d="M 4402 9497 C 4382 9476 4380 9463 4380 9359 C 4380 9283 4376 9240 4368 9232 C 4360 9224 4317 9220 4240 9220 C 4131 9220 4122 9218 4102 9197 C 4074 9168 4074 9148 4101 9124 C 4121 9106 4144 9105 4432 9102 C 4777 9099 4790 9101 4790 9160 C 4790 9212 4771 9220 4649 9220 C 4588 9220 4530 9225 4519 9230 C 4502 9240 4500 9252 4500 9354 C 4500 9453 4497 9471 4479 9494 C 4454 9526 4430 9527 4402 9497 z" stroke-linecap="round" />
</g>
<g transform="matrix(0.2504501029 0 0 -0.2504501029 1326.3588128308 596.1495932174)" id="zX-YMtjvHSOajF1ulkS3h"  >
<path style="stroke: none; stroke-width: 1; stroke-dasharray: none; stroke-linecap: butt; stroke-dashoffset: 0; stroke-linejoin: miter; stroke-miterlimit: 4; fill: rgb(205,125,20); fill-rule: nonzero; opacity: 1;"  transform=" translate(-7344.3284271247, -9400.306795282)" d="M 7307 9502 C 7294 9488 7290 9463 7290 9397 C 7290 9315 7291 9310 7316 9293 C 7340 9278 7345 9278 7369 9291 C 7394 9305 7395 9310 7398 9394 C 7400 9466 7398 9486 7384 9501 C 7362 9525 7328 9525 7307 9502 z" stroke-linecap="round" />
</g>
<g transform="matrix(0.2504501029 0 0 -0.2504501029 1411.6800433312 617.3660954196)" id="ESpY4abkyJKc7ADE6MmUK"  >
<path style="stroke: none; stroke-width: 1; stroke-dasharray: none; stroke-linecap: butt; stroke-dashoffset: 0; stroke-linejoin: miter; stroke-miterlimit: 4; fill: rgb(205,125,20); fill-rule: nonzero; opacity: 1;"  transform=" translate(-7685, -9315.5933056413)" d="M 7638 9495 C 7623 9475 7620 9448 7620 9313 C 7620 9177 7623 9152 7638 9132 C 7652 9114 7664 9109 7690 9112 C 7742 9117 7750 9141 7750 9308 C 7750 9481 7738 9520 7686 9520 C 7665 9519 7649 9512 7638 9495 z" stroke-linecap="round" />
</g>
<g transform="matrix(0.2504501029 0 0 -0.2504501029 738.7582277386 641.2675000807)" id="s-nw_3_iRKTLBCTRf0tuZ"  >
<path style="stroke: none; stroke-width: 1; stroke-dasharray: none; stroke-linecap: butt; stroke-dashoffset: 0; stroke-linejoin: miter; stroke-miterlimit: 4; fill: rgb(205,125,20); fill-rule: nonzero; opacity: 1;"  transform=" translate(-4998.1501738119, -9220.1595071346)" d="M 4956 9318 C 4944 9302 4940 9272 4940 9213 C 4940 9140 4942 9130 4962 9116 C 4989 9097 5011 9096 5033 9113 C 5055 9129 5065 9273 5047 9310 C 5030 9345 4978 9350 4956 9318 z" stroke-linecap="round" />
</g>
<g transform="matrix(0.2504501029 0 0 -0.2504501029 673.4792575437 901.7393568869)" id="8s1-nyfkScThdMl6B9pbu"  >
<path style="stroke: none; stroke-width: 1; stroke-dasharray: none; stroke-linecap: butt; stroke-dashoffset: 0; stroke-linejoin: miter; stroke-miterlimit: 4; fill: rgb(205,125,20); fill-rule: nonzero; opacity: 1;"  transform=" translate(-4737.5035642682, -8180.1445351566)" d="M 4186 8814 C 4136 8796 4123 8784 4099 8739 C 4081 8703 4080 8675 4080 8183 C 4080 7665 4080 7664 4103 7620 C 4118 7588 4137 7569 4165 7555 C 4203 7536 4228 7535 4718 7532 C 5249 7529 5284 7532 5334 7571 C 5397 7620 5395 7605 5395 8160 C 5395 8438 5391 8682 5387 8702 C 5377 8751 5325 8805 5275 8819 C 5248 8826 5071 8830 4730 8829 C 4319 8829 4218 8826 4186 8814 z M 5260 8690 C 5279 8671 5280 8657 5280 8176 L 5280 7681 L 5251 7661 C 5223 7640 5211 7640 4738 7640 C 4274 7640 4254 7641 4223 7660 L 4190 7680 L 4190 8175 C 4190 8657 4191 8671 4210 8690 C 4229 8709 4243 8710 4735 8710 C 5227 8710 5241 8709 5260 8690 z" stroke-linecap="round" />
</g>
<g transform="matrix(0.2504501029 0 0 -0.2504501029 672.3385613427 901.8932982606)" id="RoWNCzn3bkWMMn6P1l44v"  >
<path style="stroke: none; stroke-width: 1; stroke-dasharray: none; stroke-linecap: butt; stroke-dashoffset: 0; stroke-linejoin: miter; stroke-miterlimit: 4; fill: rgb(205,125,20); fill-rule: nonzero; opacity: 1;"  transform=" translate(-4732.9489795918, -8179.5298763014)" d="M 4538 8486 C 4518 8480 4485 8460 4466 8441 C 4418 8395 4407 8336 4412 8152 C 4415 8019 4417 8000 4440 7955 C 4457 7920 4477 7898 4505 7883 C 4542 7862 4557 7860 4731 7860 C 4942 7860 4975 7869 5027 7937 L 5055 7973 L 5055 8180 L 5055 8387 L 5026 8424 C 4977 8489 4934 8500 4742 8499 C 4647 8498 4559 8493 4538 8486 z M 4923 8361 C 4938 8350 4940 8324 4940 8180 C 4940 8036 4938 8010 4923 7999 C 4900 7979 4567 7979 4548 7998 C 4539 8007 4534 8052 4531 8141 C 4527 8307 4534 8358 4563 8370 C 4599 8385 4904 8378 4923 8361 z" stroke-linecap="round" />
</g>
<g transform="matrix(0.2504501029 0 0 -0.2504501029 1193.8082676616 902.9182343267)" id="FOOKwZH_eRliq1xPi2QY8"  >
<path style="stroke: none; stroke-width: 1; stroke-dasharray: none; stroke-linecap: butt; stroke-dashoffset: 0; stroke-linejoin: miter; stroke-miterlimit: 4; fill: rgb(205,125,20); fill-rule: nonzero; opacity: 1;"  transform=" translate(-6815.0791131673, -8175.4375)" d="M 5902 8804 C 5868 8780 5872 8735 5911 8714 C 5939 8700 5990 8698 6339 8701 C 6557 8702 6743 8700 6753 8695 C 6768 8689 6770 8669 6770 8490 C 6770 8381 6773 8278 6776 8261 C 6789 8200 6808 8195 7052 8195 C 7236 8195 7272 8193 7280 8180 C 7286 8171 7290 8037 7290 7864 L 7290 7562 L 7315 7546 C 7348 7524 7366 7526 7384 7552 C 7398 7571 7400 7619 7400 7877 L 7400 8180 L 7427 8191 C 7451 8200 7485 8198 7577 8184 C 7618 8178 7630 8143 7634 8018 C 7639 7889 7638 7893 7656 7876 C 7679 7852 7715 7856 7734 7885 C 7757 7920 7757 8156 7734 8224 C 7710 8293 7691 8302 7545 8309 C 7476 8313 7416 8320 7411 8325 C 7405 8331 7400 8425 7398 8535 C 7395 8725 7394 8737 7372 8767 C 7358 8787 7335 8803 7312 8810 C 7288 8816 7032 8820 6600 8820 C 6005 8820 5922 8818 5902 8804 z M 7260 8697 L 7285 8684 L 7285 8513 C 7285 8385 7282 8338 7272 8328 C 7253 8309 6917 8309 6898 8328 C 6888 8338 6885 8385 6885 8513 L 6885 8684 L 6910 8697 C 6927 8706 6984 8710 7085 8710 C 7186 8710 7243 8706 7260 8697 z" stroke-linecap="round" />
</g>
<g transform="matrix(0.2504501029 0 0 -0.2504501029 1084.8426589753 967.0583684317)" id="qwtVN5BjtUNRnEu6ahURf"  >
<path style="stroke: none; stroke-width: 1; stroke-dasharray: none; stroke-linecap: butt; stroke-dashoffset: 0; stroke-linejoin: miter; stroke-miterlimit: 4; fill: rgb(205,125,20); fill-rule: nonzero; opacity: 1;"  transform=" translate(-6380, -7919.3380480594)" d="M 5908 8299 C 5885 8290 5880 8282 5880 8255 C 5880 8193 5895 8190 6153 8190 C 6291 8190 6389 8186 6401 8180 C 6416 8171 6420 8158 6420 8117 C 6420 8080 6428 8048 6446 8012 C 6480 7944 6524 7920 6613 7920 C 6702 7920 6739 7911 6753 7886 C 6760 7873 6767 7804 6770 7710 C 6775 7556 6775 7556 6801 7541 C 6825 7528 6830 7528 6854 7543 L 6880 7560 L 6880 7751 C 6880 8011 6874 8020 6700 8027 C 6648 8029 6596 8033 6585 8035 C 6551 8042 6536 8080 6530 8173 C 6521 8311 6537 8305 6207 8307 C 6039 8308 5924 8305 5908 8299 z" stroke-linecap="round" />
</g>
<g transform="matrix(0.2504501029 0 0 -0.2504501029 972.8526050732 1002.0519844028)" id="1NtnAybFs2Sk7Z6UPlwwB"  >
<path style="stroke: none; stroke-width: 1; stroke-dasharray: none; stroke-linecap: butt; stroke-dashoffset: 0; stroke-linejoin: miter; stroke-miterlimit: 4; fill: rgb(205,125,20); fill-rule: nonzero; opacity: 1;"  transform=" translate(-5932.8448478116, -7779.6151429447)" d="M 5899 8011 C 5875 7992 5875 7991 5876 7775 C 5876 7574 5877 7557 5895 7544 C 5920 7525 5955 7526 5974 7546 C 5988 7559 5990 7594 5990 7776 C 5990 7977 5989 7991 5970 8010 C 5945 8035 5929 8035 5899 8011 z" stroke-linecap="round" />
</g>
</svg>